<svg width="200" height="200" viewBox="0 0 200 200" fill="none" xmlns="http://www.w3.org/2000/svg">
<path d="M106.572 9.49927C100.74 9.62114 96.5485 10.7672 93.7723 12.7985L55.8196 33.168L34.6848 61.8844C30.2422 68.7422 33.4051 82.0313 47.309 73.5145L62.5043 53.4555C81.8309 36.7715 121.288 44.4586 102.577 77.9051C93.386 97.2731 97.7114 106.729 109.515 110.698L114.91 92.5805C124.265 71.5551 141.669 67.7719 140.959 50.8211L182.873 53.8383L182.536 10.0708L106.572 9.49927ZM85.443 49.8657C78.6422 49.7485 71.9719 52.5602 67.1149 56.6528L51.8633 76.7036C56.0481 80.0262 60.2278 78.2504 64.4122 74.218C69.3442 76.7157 73.1485 72.8422 76.2735 65.1176C77.5692 59.8485 79.4805 56.1188 85.443 49.8657ZM72.702 84.3672C71.9953 84.3894 71.3003 84.5535 70.6582 84.8497L20.2032 108.096C17.5532 109.318 16.3895 112.472 17.6122 115.124L50.9207 187.421C52.1438 190.07 55.2973 191.241 57.952 190.013L108.401 166.769C111.056 165.543 112.22 162.395 110.997 159.738L77.684 87.4454C76.7684 85.4543 74.7645 84.3036 72.702 84.3672Z" fill="#01142C"/>
</svg>
